<?xml version="1.0" ?><svg viewBox="0 0 60 60" xmlns="http://www.w3.org/2000/svg"><title/><g data-name="Layer 1" id="Layer_1"><path d="M59.85742,35.48535l-9-15a1.03937,1.03937,0,0,0-1.71484,0L48,22.38965V17h1a.99944.99944,0,0,0,.94824-1.31641l-5-15a.99947.99947,0,0,0-1.89648,0l-5,15A.99944.99944,0,0,0,39,17h1V31H35V16.19238l1.92871-4.8208A1.0076,1.0076,0,0,0,37,11V4a1,1,0,0,0-2,0V6H33V4a1,1,0,0,0-2,0V6H29V4a1,1,0,0,0-2,0V6H25V4a1,1,0,0,0-2,0v7a1.0076,1.0076,0,0,0,.07129.37158L25,16.19238V31H20V17h1a.99944.99944,0,0,0,.94824-1.31641l-5-15a.99947.99947,0,0,0-1.89648,0l-5,15A.99944.99944,0,0,0,11,17h1v5.38965l-1.14258-1.9043a1.03937,1.03937,0,0,0-1.71484,0l-9,15A.99986.99986,0,0,0,1,37H3V59a.99942.99942,0,0,0,1,1H56a.99942.99942,0,0,0,1-1V37h2a.99986.99986,0,0,0,.85742-1.51465ZM50,22.94385,54.8335,31h-9.667ZM46,21v2H42V21Zm-4-2V17h4v2Zm4,6v.723l-4,6.66669V25ZM44,4.16211,47.6123,15H40.3877ZM25,8H35v2H25Zm2,19V17h6V27Zm6,2v2H27V29ZM26.67725,15l-1.2002-3h9.0459l-1.2002,3ZM16,4.16211,19.6123,15H12.3877ZM14,23V21h4v2Zm4,2v7.38965L14,25.723V25Zm-4-6V17h4v2Zm-4,3.94385L14.8335,31H5.1665ZM2.7666,35l1.2-2H16.03345l1.2,2ZM15,58H11V55a1,1,0,0,0-2,0v3H5V37H15Zm2-2h6.14514c-.06213.62775-.111,1.28406-.13147,2H17Zm8.01611,2c.12781-4.319,1.14941-9,4.98389-9s4.85608,4.681,4.98389,9ZM43,58H36.98633c-.02051-.71594-.06934-1.37225-.13147-2H43Zm0-4H36.56274C35.396,48.04492,32.11987,47,30,47s-5.396,1.04492-6.56274,7H17V37h2a.98918.98918,0,0,0,.3457-.0697c.02808-.01044.0542-.02112.08105-.034a.99073.99073,0,0,0,.27344-.18427l.00806-.00623a1.00325,1.00325,0,0,0,.16187-.21265c.01221-.02167.01685-.04578.02734-.06812.01318-.02765.02319-.05518.03381-.08417a.99743.99743,0,0,0,.06506-.32239C19.99634,36.012,20,36.00659,20,36V33H40v3c0,.00659.00366.012.00366.01855a.99825.99825,0,0,0,.06519.32239c.0105.02893.02051.05634.03369.084.0105.02234.01514.04651.02734.06824a1.00325,1.00325,0,0,0,.16187.21265l.00806.00623a.99457.99457,0,0,0,.27344.18433c.02686.01282.053.0235.08105.03394A.9878.9878,0,0,0,41,37h2Zm12,4H51V55a1,1,0,0,0-2,0v3H45V37H55ZM42.7666,35l1.2-2H56.03345l1.2,2Z"/><path d="M8,47h4a.99942.99942,0,0,0,1-1c0-3.48437-.92773-7-3-7s-3,3.51563-3,7A.99942.99942,0,0,0,8,47Zm2-5.91016A8.10664,8.10664,0,0,1,10.97168,45H9.02832A8.10664,8.10664,0,0,1,10,41.08984Z"/><path d="M48,47h4a.99942.99942,0,0,0,1-1c0-3.48437-.92773-7-3-7s-3,3.51563-3,7A.99942.99942,0,0,0,48,47Zm2-5.91016A8.10664,8.10664,0,0,1,50.97168,45H49.02832A8.10664,8.10664,0,0,1,50,41.08984Z"/><path d="M30,19a.99974.99974,0,0,0-1,1v1a1,1,0,0,0,2,0V20A.99974.99974,0,0,0,30,19Z"/><path d="M22,39c-2.07227,0-3,3.51563-3,7a.99942.99942,0,0,0,1,1h4a.99942.99942,0,0,0,1-1C25,42.51563,24.07227,39,22,39Zm-.97168,6A8.10664,8.10664,0,0,1,22,41.08984,8.10664,8.10664,0,0,1,22.97168,45Z"/><path d="M30,35c-2.07227,0-3,3.51563-3,7a.99942.99942,0,0,0,1,1h4a.99942.99942,0,0,0,1-1C33,38.51563,32.07227,35,30,35Zm-.97168,6A8.10664,8.10664,0,0,1,30,37.08984,8.10664,8.10664,0,0,1,30.97168,41Z"/><path d="M38,39c-2.07227,0-3,3.51563-3,7a.99942.99942,0,0,0,1,1h4a.99942.99942,0,0,0,1-1C41,42.51563,40.07227,39,38,39Zm-.97168,6A8.10664,8.10664,0,0,1,38,41.08984,8.10664,8.10664,0,0,1,38.97168,45Z"/></g></svg>