<?xml version="1.0" ?><svg viewBox="0 0 60 60" xmlns="http://www.w3.org/2000/svg"><title/><g data-name="Layer 1" id="Layer_1"><path d="M37,42H33a.99974.99974,0,0,0-1,1c0,2.68262,0,5,3,5s3-2.31738,3-5A.99974.99974,0,0,0,37,42Zm-2,4c-.77393,0-.959,0-.99316-2h1.98633C35.959,46,35.77393,46,35,46Z"/><path d="M34,30a3.51046,3.51046,0,0,0-2.95361,2.29785,6.93744,6.93744,0,0,0,1.18945,7.34668A.999.999,0,0,0,33,40h4a.99988.99988,0,0,0,.97559-.78027,9.30455,9.30455,0,0,0-1.2998-7.751A3.4956,3.4956,0,0,0,34,30Zm2.16895,8H33.48633a4.87621,4.87621,0,0,1-.62646-4.85937C33.208,32.3916,33.69678,32,34,32a1.61211,1.61211,0,0,1,1.11377.71875A7.07246,7.07246,0,0,1,36.16895,38Z"/><path d="M27,32H23a.99974.99974,0,0,0-1,1c0,2.68262,0,5,3,5s3-2.31738,3-5A.99974.99974,0,0,0,27,32Zm-2,4c-.77393,0-.959,0-.99316-2h1.98633C25.959,36,25.77393,36,25,36Z"/><path d="M26,20a3.4956,3.4956,0,0,0-2.67578,1.46875,9.30455,9.30455,0,0,0-1.2998,7.751A.99988.99988,0,0,0,23,30h4a.999.999,0,0,0,.76416-.35547,6.93744,6.93744,0,0,0,1.18945-7.34668A3.51046,3.51046,0,0,0,26,20Zm.51367,8H23.83105a7.07246,7.07246,0,0,1,1.05518-5.28125A1.61211,1.61211,0,0,1,26,22c.30322,0,.792.3916,1.14014,1.14063A4.87621,4.87621,0,0,1,26.51367,28Z"/><path d="M37,22H33a.99974.99974,0,0,0-1,1c0,2.68262,0,5,3,5s3-2.31738,3-5A.99974.99974,0,0,0,37,22Zm-2,4c-.77393,0-.959,0-.99316-2h1.98633C35.959,26,35.77393,26,35,26Z"/><path d="M33,20h4a.99988.99988,0,0,0,.97559-.78027,9.30455,9.30455,0,0,0-1.2998-7.751A3.4956,3.4956,0,0,0,34,10a3.51046,3.51046,0,0,0-2.95361,2.29785,6.93744,6.93744,0,0,0,1.18945,7.34668A.999.999,0,0,0,33,20Zm-.14014-6.85937C33.208,12.3916,33.69678,12,34,12a1.61211,1.61211,0,0,1,1.11377.71875A7.07246,7.07246,0,0,1,36.16895,18H33.48633A4.87621,4.87621,0,0,1,32.85986,13.14063Z"/><path d="M59.44727,9.10547l-18-9a.99921.99921,0,0,0-.82568-.03125L19.0415,8.90234,1.44727.10547A1.0001,1.0001,0,0,0,0,1V51a1.00106,1.00106,0,0,0,.59375.91406l18,8a.99694.99694,0,0,0,.748.02539L40.9624,52.07813l17.63135,7.83594A.99992.99992,0,0,0,60,59V10A1.0004,1.0004,0,0,0,59.44727,9.10547ZM20,10.67151,40,2.48975V50.29987L20,57.572ZM2,2.61816l16,8V57.46075L2,50.35059ZM58,57.46094,42,50.34985V2.61841l16,7.99976Z"/></g></svg>