<?xml version="1.0" ?><svg viewBox="0 0 60 60" xmlns="http://www.w3.org/2000/svg"><title/><g id="text"><text font-family="MyriadPro-Regular, Myriad Pro" font-size="9" transform="translate(10.01025 -49.60986)"><tspan letter-spacing="0.00998em"/><tspan letter-spacing="-0.01297em" x="2.24072" y="0"/><tspan x="7.11914" y="0"/><tspan letter-spacing="0.00901em" x="30.68115" y="0"/><tspan x="33.74121" y="0"/><tspan x="8.56787" y="10.7998"/></text></g><g data-name="Layer 1" id="Layer_1"><path d="M13,49a.99974.99974,0,0,0,1,1H46a.99974.99974,0,0,0,1-1V25a.93987.93987,0,0,0-.0246-.12195l.01678-.00208c-.52246-4.17969-3.42676-6.25977-6.23584-8.27148C37.7959,14.48535,35,12.4834,35,8a.99991.99991,0,0,0-1.26318-.96484c-11.31543,3.08594-19.64453,10.249-20.72656,17.82324l.01782.00256A.94129.94129,0,0,0,13,25ZM28.68262,37.48145a2.00849,2.00849,0,0,1,2.63428,0L43.338,48h-26.676Zm5.46552-.18085L45,27.28351V46.79578Zm-1.51324-1.324-.0011-.001a4.01632,4.01632,0,0,0-5.26807,0l-.00085.00079L16.55713,26H43.44287Zm-6.78326,1.32385L15,46.79572V27.28351Zm7.2182-27.98987c.50781,4.61426,3.68848,6.8916,6.522,8.9209,2.26373,1.62091,4.4137,3.165,5.17987,5.76855h-29.548C16.79272,17.96429,23.84949,12.13562,33.06982,9.31055Z"/><path d="M59.95313,25.69727a1.00128,1.00128,0,0,0-.84277-.69141l-9-1a1.00025,1.00025,0,0,0-.2207,1.98828l6.76611.752-7.32031,6.50684a1,1,0,0,0,.2583,1.66113l6.644,2.95215-6.5542,2.18555a.99964.99964,0,1,0,.63281,1.89648l9-3a.99984.99984,0,0,0,.08984-1.8623l-7.582-3.36914,7.84033-6.96973A.9995.9995,0,0,0,59.95313,25.69727Z"/><path d="M35.3999,4.7998a1.00259,1.00259,0,0,0,1.04736.09473L40.56787,2.834,39.02393,9.7832a.99958.99958,0,0,0,1.46631,1.08789L53.7627,3.40625l-6.66748,14.168A1,1,0,0,0,48,19c.02979,0,.06006-.001.09033-.00391l11-1a1.00018,1.00018,0,1,0-.18066-1.99219l-9.26123.8418L56.90479,1.42578a.99957.99957,0,0,0-1.395-1.29687L41.46191,8.03027,42.97607,1.2168A1.00013,1.00013,0,0,0,41.55273.10547L36.10547,2.8291,32.6001.2002A.9999.9999,0,0,0,31.3999,1.7998Z"/><path d="M8.13184,27.49609a.99991.99991,0,0,0,1.73633-.99219l-7.02441-12.293,7.0459.7832a1.00075,1.00075,0,0,0,1.10645-1.085l-.81592-8.97266,9.28271,5.90723a1.00007,1.00007,0,0,0,1.51318-.627l1.644-7.39844,4.73975,3.9502a1.00023,1.00023,0,0,0,1.28027-1.53711l-6-5A1.00029,1.00029,0,0,0,21.02393.7832L19.3335,8.39063,9.53711,2.15625a1.00061,1.00061,0,0,0-1.5332.93457l.88916,9.78027-7.78271-.86523a1.00014,1.00014,0,0,0-.97852,1.49023Z"/><path d="M32.21924,52.375,29,56.39941,25.78076,52.375a1.00057,1.00057,0,0,0-1.67529.17773l-2.00391,4.00781-1.17285-2.93164a.99989.99989,0,0,0-1.78613-.14355l-3,5a1,1,0,0,0,1.71484,1.0293l1.96289-3.27148,1.251,3.12793a1.00017,1.00017,0,0,0,.88721.62793.9875.9875,0,0,0,.936-.55176l2.30078-4.60254L28.21924,58.625a1.03425,1.03425,0,0,0,1.56152,0l4-5a1.00011,1.00011,0,1,0-1.56152-1.25Z"/><path d="M58.59375,45.08594l-9,4a1.00028,1.00028,0,0,0-.50732,1.32031l2.9209,6.57227L41.41895,52.0918a1.00105,1.00105,0,0,0-1.31348.46094l-3,6a1.00012,1.00012,0,0,0,1.78906.89453l2.56641-5.13281L53.58105,59.9082a1,1,0,0,0,1.33252-1.31445l-3.59375-8.08594,8.08643-3.59375a1.00027,1.00027,0,0,0-.8125-1.82812Z"/><path d="M12.61523,53.07715,3.47559,56.88477l6.376-10.36035a1.00064,1.00064,0,0,0-.50049-1.46094l-6.00586-2.252,5.15088-2.94336a1.00013,1.00013,0,0,0-.04883-1.7627l-3.582-1.791,5.37744-1.34473a.99963.99963,0,0,0,.312-1.80176l-9-6A1,1,0,0,0,.44531,28.832l7.11914,4.74609L1.75732,35.03027a.99973.99973,0,0,0-.20459,1.86426l4.32861,2.16406L.50391,42.13184a1.00022,1.00022,0,0,0,.145,1.80469l6.86328,2.57324L.14844,58.47559a.99985.99985,0,0,0,1.23633,1.44727l12-5a.99985.99985,0,0,0-.76953-1.8457Z"/><path d="M4.293,7.707A.99989.99989,0,0,0,5.707,6.293l-4-4A.99989.99989,0,0,0,.293,3.707Z"/><path d="M54.2002,13.59961a.99922.99922,0,0,0,1.3999.2002l4-3A.9999.9999,0,0,0,58.3999,9.2002l-4,3A.999.999,0,0,0,54.2002,13.59961Z"/><path d="M46.707,11.293a.99964.99964,0,0,0-1.41406,0l-2,2A.99989.99989,0,1,0,44.707,14.707l2-2A.99964.99964,0,0,0,46.707,11.293Z"/><path d="M56.707,51.293A.99989.99989,0,0,0,55.293,52.707l3,3A.99989.99989,0,0,0,59.707,54.293Z"/><path d="M8.293,17.293a.99964.99964,0,0,0,0,1.41406l2,2A.99989.99989,0,0,0,11.707,19.293l-2-2A.99964.99964,0,0,0,8.293,17.293Z"/><path d="M14.10547,12.44727a1.00012,1.00012,0,0,0,1.78906-.89453l-1-2a1.00012,1.00012,0,0,0-1.78906.89453Z"/><path d="M43.707,57.293A.99989.99989,0,0,0,42.293,58.707l1,1A.99989.99989,0,0,0,44.707,58.293Z"/></g></svg>