<?xml version="1.0" ?><svg viewBox="0 0 60 60" xmlns="http://www.w3.org/2000/svg"><title/><g data-name="Layer 1" id="Layer_1"><path d="M22,13a5,5,0,1,0,5,5A5.00589,5.00589,0,0,0,22,13Zm0,8a3,3,0,1,1,3-3A3.00328,3.00328,0,0,1,22,21Z"/><circle cx="22" cy="18" r="1"/><path d="M38,23a5,5,0,1,0-5-5A5.00589,5.00589,0,0,0,38,23Zm0-8a3,3,0,1,1-3,3A3.00328,3.00328,0,0,1,38,15Z"/><circle cx="38" cy="18" r="1"/><path d="M40.44141,49.9649,42.168,52.55469a.999.999,0,0,0,.68848.43506A1.01385,1.01385,0,0,0,43,53a1.002,1.002,0,0,0,.64063-.23193c4.542-3.78564,12.3877-14.08008,10.84668-21.8457-.67871-3.41736-3.03223-5.90674-6.96851-7.43408a10.8999,10.8999,0,0,0,.50317-9.99866c3.60815-2.72211,4.70972-7.4566,2.92627-12.806a1.00007,1.00007,0,0,0-1.7168-.32373c-1.37207,1.64648-3.9834,2.147-7.00781,2.72607-1.2771.24457-2.63892.50714-3.99756.88837A14.555,14.555,0,0,0,30,2a14.555,14.555,0,0,0-8.22607,1.9743c-1.35864-.38123-2.72046-.6438-3.99756-.88837C14.752,2.50684,12.14063,2.00635,10.76855.35986a1.00007,1.00007,0,0,0-1.7168.32373C7.26831,6.033,8.36987,10.76752,11.978,13.48962a10.8999,10.8999,0,0,0,.50317,9.99866C8.54492,25.01563,6.19141,27.505,5.5127,30.92236c-1.541,7.76563,6.30469,18.06006,10.84668,21.8457A1.002,1.002,0,0,0,17,53a1.01385,1.01385,0,0,0,.14355-.01025.999.999,0,0,0,.68848-.43506l1.72656-2.58978a19.32385,19.32385,0,0,0,4.28711,3.29175c-.32153.6355-.90112.76184-2.13574.93475-1.8418.25732-4.36426.60986-5.6582,4.49219a.99964.99964,0,1,0,1.89648.63281c.76538-2.29529,1.92773-2.78882,3.29028-3.02972l-1.13306,2.26605a1.00012,1.00012,0,0,0,1.78906.89453l1.8186-3.63715A3.20914,3.20914,0,0,0,25.65491,54.114,11.86007,11.86007,0,0,0,30,55a11.86007,11.86007,0,0,0,4.34509-.886,3.20914,3.20914,0,0,0,1.94177,1.69611l1.8186,3.63715a1.00012,1.00012,0,0,0,1.78906-.89453l-1.13306-2.26605c1.36255.24091,2.5249.73444,3.29028,3.02972a.99964.99964,0,1,0,1.89648-.63281c-1.29395-3.88232-3.81641-4.23486-5.6582-4.49219-1.23462-.17291-1.81421-.29926-2.13574-.93475A19.32385,19.32385,0,0,0,40.44141,49.9649ZM52.52539,31.312c1.27246,6.41211-5.14453,15.26758-9.3291,19.1792L41.832,48.44531l-.02954.01965c.11475-.13824.23145-.27313.344-.41516,4.81567-6.0802,6.66675-14.18658,5.19556-22.47754C50.272,26.84814,52.02112,28.76929,52.52539,31.312ZM30,22a3.00328,3.00328,0,0,0-3,3,1.0076,1.0076,0,0,0,.07129.37158l.01758.04407A8.91244,8.91244,0,0,1,22,27a9,9,0,1,1,7.2002-14.3999l.01074.00854a.99189.99189,0,0,0,1.57813,0l.01074-.00854a9.00657,9.00657,0,1,1,2.11133,12.81555l.01758-.04407A1.0076,1.0076,0,0,0,33,25,3.00328,3.00328,0,0,0,30,22Zm.9873,2.83936L30,27.30762l-.9873-2.46826a1.00034,1.00034,0,0,1,1.97461,0ZM42.59961,5.05029c2.582-.49463,5.0498-.96729,6.874-2.2334.86035,3.77722-.019,6.92572-2.4574,8.90009A10.94441,10.94441,0,0,0,35.07446,7.40277,22.82591,22.82591,0,0,1,42.59961,5.05029ZM30,4a14.12069,14.12069,0,0,1,5.64331.881A11.85425,11.85425,0,0,0,30,9.73828,11.85425,11.85425,0,0,0,24.35669,4.881,14.12069,14.12069,0,0,1,30,4ZM10.52637,2.81689c1.82422,1.26611,4.292,1.73877,6.874,2.2334a22.82591,22.82591,0,0,1,7.52515,2.35248A10.94441,10.94441,0,0,0,12.98376,11.717C10.54541,9.74261,9.666,6.59412,10.52637,2.81689ZM18.168,48.44531l-1.36426,2.0459C12.61914,46.57959,6.20215,37.72412,7.47461,31.312c.50427-2.54266,2.25342-4.46387,5.18335-5.73975-1.47119,8.291.37988,16.39734,5.19556,22.47754.11255.142.22925.27692.344.41516ZM30,53c-3.55273,0-7.50781-2.31494-10.57812-6.19189a25.98718,25.98718,0,0,1-4.82422-20.69519,10.964,10.964,0,0,0,13.25171,1.204l1.22192,3.05469a1.00046,1.00046,0,0,0,1.85742,0l1.22192-3.05469a10.964,10.964,0,0,0,13.25171-1.204,25.98718,25.98718,0,0,1-4.82422,20.69519C37.50781,50.68506,33.55273,53,30,53Z"/><path d="M40,33a.99974.99974,0,0,0-1,1,1,1,0,0,1-2,0,1,1,0,0,0-2,0,1,1,0,0,1-2,0,1,1,0,0,0-2,0,1,1,0,0,1-2,0,1,1,0,0,0-2,0,1,1,0,0,1-2,0,1,1,0,0,0-2,0,1,1,0,0,1-2,0,1,1,0,0,0-2,0,2.99863,2.99863,0,0,0,5,2.23438,2.99506,2.99506,0,0,0,4,0,2.99506,2.99506,0,0,0,4,0,2.99506,2.99506,0,0,0,4,0A2.99863,2.99863,0,0,0,41,34,.99974.99974,0,0,0,40,33Z"/><path d="M38,39a.99974.99974,0,0,0-1,1,1,1,0,0,1-2,0,1,1,0,0,0-2,0,1,1,0,0,1-2,0,1,1,0,0,0-2,0,1,1,0,0,1-2,0,1,1,0,0,0-2,0,1,1,0,0,1-2,0,1,1,0,0,0-2,0,2.99863,2.99863,0,0,0,5,2.23438,2.99506,2.99506,0,0,0,4,0,2.99506,2.99506,0,0,0,4,0A2.99863,2.99863,0,0,0,39,40,.99974.99974,0,0,0,38,39Z"/><path d="M36,45a.99974.99974,0,0,0-1,1,1,1,0,0,1-2,0,1,1,0,0,0-2,0,1,1,0,0,1-2,0,1,1,0,0,0-2,0,1,1,0,0,1-2,0,1,1,0,0,0-2,0,2.99863,2.99863,0,0,0,5,2.23438,2.99506,2.99506,0,0,0,4,0A2.99863,2.99863,0,0,0,37,46,.99974.99974,0,0,0,36,45Z"/></g></svg>