<?xml version="1.0" ?><svg viewBox="0 0 60 60" xmlns="http://www.w3.org/2000/svg"><title/><g data-name="Layer 1" id="Layer_1"><path d="M38,25.31152v-12.438A4.00031,4.00031,0,0,0,37,5h-.10242l1.06433-3.7251A1.00009,1.00009,0,0,0,37,0H25a1.00009,1.00009,0,0,0-.96191,1.2749L25.10242,5H25a4.00031,4.00031,0,0,0-1,7.87354V25.312A17.72028,17.72028,0,0,0,13,42a18,18,0,0,0,36,0A17.71709,17.71709,0,0,0,38,25.31152ZM35.67383,2,34.24609,7H27.75391L26.32617,2Zm-10.335,24.94092A.99985.99985,0,0,0,26,26V12a.99974.99974,0,0,0-1-1,2,2,0,0,1,0-4h.67383l.36426,1.2749A1.00094,1.00094,0,0,0,27,9h8a1.00094,1.00094,0,0,0,.96191-.7251L36.32617,7H37a2,2,0,0,1,0,4,.99974.99974,0,0,0-1,1V26a.99939.99939,0,0,0,.66211.94092,15.42565,15.42565,0,0,1,5.92212,3.83386c-6.81989-.45886-9.72546.92352-12.53442,2.27161-2.97894,1.43079-5.81293,2.78088-13.58069,2.09332A15.42909,15.42909,0,0,1,25.33887,26.94092ZM31,58A16.01833,16.01833,0,0,1,15,42a16.80777,16.80777,0,0,1,.7276-4.92316c1.71338.16754,3.22894.24786,4.56146.24786a21.105,21.105,0,0,0,10.627-2.4751c2.93726-1.41,5.73254-2.738,13.39642-1.916A16.31383,16.31383,0,0,1,47,42,16.01833,16.01833,0,0,1,31,58Z"/><path d="M18.99994,42a17.059,17.059,0,0,1,.10449-1.88965,1.0003,1.0003,0,0,0-1.98828-.22168A19.14888,19.14888,0,0,0,16.99994,42a18.05449,18.05449,0,0,0,.502,4.23389.99955.99955,0,1,0,1.94336-.46875A16.11089,16.11089,0,0,1,18.99994,42Z"/><path d="M21.871,49.37744a.99973.99973,0,1,0-1.56445,1.24512,17.09608,17.09608,0,0,0,2.0293,2.12549A1.00028,1.00028,0,0,0,23.664,51.252,15.08894,15.08894,0,0,1,21.871,49.37744Z"/></g></svg>