<?xml version="1.0" ?><svg viewBox="0 0 60 60" xmlns="http://www.w3.org/2000/svg"><title/><g data-name="Layer 1" id="Layer_1"><path d="M59.70459.29053A1.00131,1.00131,0,0,0,58.32422.2627L34.55011,22.0556A3.941,3.941,0,0,0,34,22a3.997,3.997,0,0,0-3.98486,3.85016l-4.63367,4.18842C25.25336,30.02869,25.13062,30,25,30a4.99988,4.99988,0,0,0-4.989,4.89154L15.441,39.02234C15.29486,39.01166,15.14886,39,15,39a6.00291,6.00291,0,0,0-5.9917,5.83636L6.32959,47.25781A1.0007,1.0007,0,0,0,6,48a5.49473,5.49473,0,0,1-5,5,.99991.99991,0,0,0-.707,1.707l5,5A.99991.99991,0,0,0,7,59a5.49473,5.49473,0,0,1,5-5,1.00195,1.00195,0,0,0,.7417-.3291l2.42145-2.67914A6.00293,6.00293,0,0,0,21,45c0-.14886-.0116-.29492-.02234-.4411l4.13025-4.56982A4.99992,4.99992,0,0,0,30,35c0-.13049-.02863-.25305-.03851-.381l4.18842-4.63409A3.99689,3.99689,0,0,0,38,26c0-.09-.02069-.17419-.02655-.2627L59.7417,1.6709A1.00005,1.00005,0,0,0,59.70459.29053Zm-48.1665,51.729A7.67271,7.67271,0,0,0,5.373,56.959L3.041,54.627a7.67167,7.67167,0,0,0,4.93945-6.165l1.43121-1.29376a6.023,6.023,0,0,0,3.42,3.4201ZM15,49a4,4,0,1,1,4-4A4.00427,4.00427,0,0,1,15,49Zm2.71991-9.34125L20.50208,37.144a5.00956,5.00956,0,0,0,2.35376,2.35382L20.34125,42.28A6.03213,6.03213,0,0,0,17.71991,39.65875ZM25,38a3,3,0,1,1,3-3A3.00328,3.00328,0,0,1,25,38Zm2.58551-7.25793L30.577,28.03778A4.00463,4.00463,0,0,0,31.96222,29.423l-2.70428,2.99146A5.00966,5.00966,0,0,0,27.58551,30.74207ZM34,28a2,2,0,1,1,2-2A2.002,2.002,0,0,1,34,28Zm3.19391-4.38269a4.012,4.012,0,0,0-.64868-.67706l7.382-6.7674Z"/></g></svg>