<?xml version="1.0" ?><svg viewBox="0 0 60 60" xmlns="http://www.w3.org/2000/svg"><title/><g data-name="Layer 1" id="Layer_1"><path d="M50.41943,49.86914c-1.33838-4.70508-2.31348-9.07812-3.17334-12.9375-2.41992-10.8584-4.09717-18.38281-10.91357-19.71875A9.95872,9.95872,0,0,0,38.27393,7.15234C36.89258,3.00781,33.41309,0,30,0s-6.89258,3.00781-8.27393,7.15234a9.95872,9.95872,0,0,0,1.94141,10.06055c-6.81641,1.33594-8.49365,8.86035-10.91357,19.71875-.85986,3.85938-1.835,8.23242-3.17334,12.9375a5.0073,5.0073,0,0,0,1.20215,4.86523C13.72852,57.748,19.13477,60,22,60a.99974.99974,0,0,0,1-1c0-3.09833.09369-6.0293.26227-8.78284,1.5423-1.2207,3.6593-1.23083,6.09906-1.21912L30,49l.6123-.001c2.446-.0108,4.57709-.00073,6.12555,1.21967C36.90637,52.9718,37,55.90222,37,59a.99974.99974,0,0,0,1,1c2.86523,0,8.27148-2.252,11.2168-5.26562A5.00637,5.00637,0,0,0,50.41943,49.86914ZM30.605,46.999,30,47l-.63086-.002a14.68273,14.68273,0,0,0-5.93408.79669C24.53882,34.04083,27.54248,25.22449,30,23.19238c2.45776,2.03229,5.46167,10.84985,6.56525,24.60565A14.65111,14.65111,0,0,0,30.605,46.999Zm17.18164,6.33691a18.54921,18.54921,0,0,1-8.791,4.56348C38.853,39.50488,35.14941,23.457,30.44727,21.10547a1.0011,1.0011,0,0,0-.89453,0C24.85059,23.457,21.147,39.50488,21.00439,57.89941a18.55278,18.55278,0,0,1-8.7915-4.56348,3.00171,3.00171,0,0,1-.7085-2.91992c1.354-4.75977,2.33545-9.16406,3.20166-13.0498C17.47021,24.96289,19.105,19,26,19a.99988.99988,0,0,0,.6001-1.7998,8.07559,8.07559,0,0,1-2.97705-9.415C24.72266,4.4873,27.46387,2,30,2s5.27734,2.4873,6.377,5.78516a8.07559,8.07559,0,0,1-2.97705,9.415A.99988.99988,0,0,0,34,19c6.895,0,8.52979,5.96289,11.29395,18.36621.86621,3.88574,1.84766,8.29,3.20166,13.0498A3.00076,3.00076,0,0,1,47.78662,53.33594Z"/><path d="M34.38525,10.87109C34.38525,7.98535,32.74512,5,30,5s-4.38525,2.98535-4.38525,5.87109C25.61475,13.93848,27.377,16,30,16S34.38525,13.93848,34.38525,10.87109Zm-2.61914,2.27637A2.02537,2.02537,0,0,1,30,14c-2.21338,0-2.38525-2.39453-2.38525-3.12891C27.61475,9.002,28.57324,7,30,7s2.38525,2.002,2.38525,3.87109A3.94152,3.94152,0,0,1,31.76611,13.14746Z"/></g></svg>